<mxfile host="app.diagrams.net" agent="Mozilla/5.0 (Windows NT 10.0; Win64; x64) AppleWebKit/537.36 (KHTML, like Gecko) Chrome/133.0.0.0 Safari/537.36" version="26.0.16">
  <diagram name="PÃ¡gina-1" id="d9WB7yag9lj2vRWepkvj">
    <mxGraphModel dx="1018" dy="425" grid="1" gridSize="10" guides="1" tooltips="1" connect="1" arrows="1" fold="1" page="1" pageScale="1" pageWidth="827" pageHeight="1169" math="0" shadow="0">
      <root>
        <mxCell id="0" />
        <mxCell id="1" parent="0" />
        <mxCell id="sisSKAefN8vNrDVJl1UH-4" value="" style="rounded=0;whiteSpace=wrap;html=1;rotation=90;" vertex="1" parent="1">
          <mxGeometry x="370" y="170" width="400" height="215" as="geometry" />
        </mxCell>
        <mxCell id="gVpPwzynozqauGMlb4JV-1" value="Medico" style="shape=umlActor;verticalLabelPosition=bottom;verticalAlign=top;html=1;outlineConnect=0;" parent="1" vertex="1">
          <mxGeometry x="290" y="170" width="30" height="60" as="geometry" />
        </mxCell>
        <mxCell id="gVpPwzynozqauGMlb4JV-2" value="Actor" style="shape=umlActor;verticalLabelPosition=bottom;verticalAlign=top;html=1;outlineConnect=0;" parent="1" vertex="1">
          <mxGeometry x="310" y="330" width="30" height="60" as="geometry" />
        </mxCell>
        <mxCell id="gVpPwzynozqauGMlb4JV-3" value="Actor" style="shape=umlActor;verticalLabelPosition=bottom;verticalAlign=top;html=1;outlineConnect=0;" parent="1" vertex="1">
          <mxGeometry x="120" y="180" width="30" height="60" as="geometry" />
        </mxCell>
        <mxCell id="gVpPwzynozqauGMlb4JV-4" value="Paciente" style="shape=umlActor;verticalLabelPosition=bottom;verticalAlign=top;html=1;outlineConnect=0;" parent="1" vertex="1">
          <mxGeometry x="240" y="60" width="30" height="60" as="geometry" />
        </mxCell>
        <mxCell id="gVpPwzynozqauGMlb4JV-5" value="Ver Citas" style="ellipse;whiteSpace=wrap;html=1;" parent="1" vertex="1">
          <mxGeometry x="482" y="90" width="180" height="30" as="geometry" />
        </mxCell>
        <mxCell id="gVpPwzynozqauGMlb4JV-11" value="Solicitar Citas" style="ellipse;whiteSpace=wrap;html=1;" parent="1" vertex="1">
          <mxGeometry x="482" y="130" width="180" height="30" as="geometry" />
        </mxCell>
        <mxCell id="gVpPwzynozqauGMlb4JV-12" value="Ver Medicamentos" style="ellipse;whiteSpace=wrap;html=1;" parent="1" vertex="1">
          <mxGeometry x="480" y="180" width="180" height="30" as="geometry" />
        </mxCell>
        <mxCell id="gVpPwzynozqauGMlb4JV-13" value="Consultar Pagos" style="ellipse;whiteSpace=wrap;html=1;" parent="1" vertex="1">
          <mxGeometry x="485" y="270" width="180" height="30" as="geometry" />
        </mxCell>
        <mxCell id="gVpPwzynozqauGMlb4JV-14" value="Pedir Recetas" style="ellipse;whiteSpace=wrap;html=1;" parent="1" vertex="1">
          <mxGeometry x="490" y="230" width="180" height="30" as="geometry" />
        </mxCell>
        <mxCell id="sisSKAefN8vNrDVJl1UH-3" value="&lt;b&gt;SISTEMA HOSPITALARIO&lt;/b&gt;" style="text;html=1;align=center;verticalAlign=middle;resizable=0;points=[];autosize=1;strokeColor=none;fillColor=none;" vertex="1" parent="1">
          <mxGeometry x="482" y="18" width="170" height="30" as="geometry" />
        </mxCell>
      </root>
    </mxGraphModel>
  </diagram>
</mxfile>
